<svg version="1" xmlns="http://www.w3.org/2000/svg" width="853.333" height="853.333" viewBox="0 0 640.000000 640.000000"><path d="M240.8 96.5c-.2.2-2.8.6-5.8.9-7.9.9-9.9 1.3-20.3 4.2-5 1.4-10.2 2.8-11.5 3.1-1.2.3-2.5.9-2.8 1.4-.3.5-1.2.9-2 .9-.9 0-4 1.1-7 2.5s-5.9 2.5-6.3 2.5c-.5 0-1.1.3-1.3.7-.1.5-3 2.2-6.3 4-17.6 9.4-39.2 28.8-51.7 46.4-3.7 5.1-9 14.1-11.9 19.9-2.8 5.8-5.6 11.3-6.1 12.4-3.1 6.1-8.8 27.5-10.4 39.1-.3 2.3-1.4 23.7-1.4 28.8 0 .4-1.2 1.2-2.7 1.8-1.6.5-4.6 1.8-6.8 2.8-2.2 1-5.5 2.5-7.3 3.2-1.7.8-3.2 1.7-3.2 2.1 0 .5-.5.8-1.1.8-.9 0-9.7 5.6-19.9 12.7-5.1 3.5-22.8 22-27.6 28.8C13.3 335.5 5 356.2 1.2 381c-1.6 10.7-.6 39.7 1.7 47.8.5 1.7.8 3.2.5 3.2-.3 0 0 .8.5 1.9.6 1 1.3 3.3 1.6 5.1.3 1.8 1.1 4.2 1.7 5.4.6 1.1 1 2.2.9 2.4-.4.4 1.5 5.2 5.5 14 1.9 4.1 3.4 7.8 3.4 8.3 0 .5.5.9 1 .9.6 0 1 .4 1 1 0 .9 9 14.6 12.1 18.5 4.5 5.6 21.3 21.8 26.4 25.6 3.3 2.4 6.2 4.6 6.5 4.9.6.6 4.9 2.9 15.5 8.5 9.2 4.8 27.4 11.4 33 12 .6.1 2.4.4 4 .8 4.7 1.1 9.5 1.7 16.8 2.2 3.7.2 7.2.7 7.7 1 .6.3 1 .3 1-.2 0-.4 2.3-.8 5-.8 2.8 0 5 .3 5 .6s2 .3 4.5-.1 4.5-.4 4.5 0 2 .4 4.5 0 4.8-.3 5.1.2c.3.4.9.6 1.4.3.5-.3 3-.5 5.7-.5 2.6 0 8.6 0 13.3-.1h10c.8.1 3.5.1 6 0s5.1-.1 5.8 0c1.8.2 3.8.2 13.4.1 4.9-.1 9.2.1 9.7.5.5.3 1.2.1 1.5-.3.3-.5 2.6-.6 5.1-.2 2.5.4 4.5.4 4.5 0s2-.4 4.5 0 4.5.4 4.5 0 2-.4 4.5 0 4.5.4 4.5 0 2-.4 4.5 0 4.8.3 5.1-.2c.3-.4 1-.6 1.5-.3.5.4 4.8.6 9.7.5h10.7c1.1 0 4 0 6.5-.1s5.1-.1 5.8 0c2.4.2 17.1.3 22.2.1 1.4-.1 4.9-.2 7.8-.3 2.8-.1 5.2.1 5.2.4 0 .3 2 .3 4.5-.1s4.5-.4 4.5 0 2 .4 4.5 0 4.8-.3 5.1.2c.3.4.9.6 1.4.3.5-.3 3-.5 5.7-.5 2.6 0 8.6 0 13.3-.1h10c.8.1 3.5.1 6 0s5.1-.1 5.8 0c1.8.2 3.8.2 13.4.1 4.9-.1 9.2.1 9.7.5.5.3 1.2.1 1.5-.3.3-.5 2.6-.6 5.1-.2 2.5.4 4.5.4 4.5 0s2-.4 4.5 0 4.5.4 4.5 0 2-.4 4.5 0 4.5.4 4.5 0 2-.4 4.5 0 4.8.3 5.1-.2c.3-.4 1-.6 1.5-.3.5.4 4.8.6 9.7.5h10.7c1.1 0 4 0 6.5-.1s5.1-.1 5.8 0c.6 0 1.8.1 2.5.2 2.2.2 25.2-1 27.2-1.4 1.1-.3 3.6-.7 5.5-1.1 4.7-.8 6.6-1.3 12.6-2.9 5.4-1.5 22.6-8.6 23.4-9.7.3-.4 1.3-1 2.3-1.3 2.1-.8 15.8-10 19.6-13.2 6.6-5.6 16.1-15.9 22.9-25 3.1-4.1 9.2-14.7 9.2-16 0-.8.3-1.5.8-1.5.6 0 3.4-6.4 5.7-13 .1-.3.5-1.3.9-2.2.4-.9.9-2.2 1-3 .1-.7.8-3.1 1.4-5.3 1.3-4.6 2-8.1 3-14.5.9-6 .8-30.3-.1-36-.4-2.5-.9-5.9-1.1-7.5-.3-1.7-.9-4.3-1.5-5.8s-1.3-4.2-1.6-6c-.4-1.7-1.1-3.7-1.7-4.4-.6-.7-.7-1.3-.3-1.3.4 0 .2-.7-.5-1.5s-1-1.5-.7-1.5c1 0-8.2-17.9-12.7-24.8-13.6-20.5-36-39-57.3-47.3-1.3-.5-3.3-1.3-4.5-1.8-4.2-1.7-10.4-3.6-15.3-4.6-3.9-.8-3.9-.8-2.4-5.2 4.9-14.4 6-38.3 2.4-51.8-.8-3.3-1.7-6.7-2-7.5-.2-.8-.4-1.6-.5-1.8-.2-.1-.3-.5-.5-1-.1-.4-.6-1.8-1.2-3.2-.6-1.4-1.8-4.2-2.6-6.2-1.7-4.1-9.2-15.9-12.6-19.8-15.1-17.5-34.4-29-56.6-33.6-1.6-.3-8.5-.7-15.2-.9-10.7-.3-17.2.4-27.8 2.9-6.2 1.4-17.2 6.2-24 10.4-2.1 1.4-4.1 2-4.2 1.5-.5-1.3-9.9-14.9-13.8-19.9-3.3-4.2-19.7-20.6-24.1-24.2-7.4-5.9-21.7-14.8-30.8-19.2-9.3-4.4-25.5-10.4-30.9-11.3-1.2-.2-2.9-.7-3.7-1-.8-.3-3.7-.9-6.5-1.3-2.7-.3-6.1-.9-7.5-1.1-2.8-.5-35.7-1.2-36.2-.8z"/></svg>