<svg version="1" xmlns="http://www.w3.org/2000/svg" width="682.667" height="682.667" viewBox="0 0 512.000000 512.000000"><path d="M96.9 51.7c-.1.4-.1 1.1-.1 1.4.6 4.5 1.5 31.6 1.5 42.4 0 12.3-.8 35.1-1.8 48.5-.1 2.5-.6 8.5-.9 13.5-.4 4.9-.9 10.6-1.1 12.5-.2 1.9-.6 6-.9 9-1.7 18.5-3.1 31.4-4.1 39.2-.5 3.8-.8 6.7-2 16.8-.4 3-.8 6.6-1 8-.4 2.9-1 7.3-2.5 19-1 7.4-2.7 20.3-4.6 33.5-.4 2.2-.8 5.6-1 7.5-.2 1.9-.8 6.6-1.3 10.5-1.2 8.2-1.8 12.8-2.7 21-.3 3.3-.8 6.8-.9 7.7-.2.9-.6 4.8-1 8.5-.3 3.7-.8 7.7-1 8.8-.2 1.1-.7 6.5-1.1 12-3.3 45.9 6.9 68.3 38.1 83.7 7.6 3.7 30.1 11.8 33 11.8 1.1 0 1-.8-.2-4.8-3.6-11.8-4.8-25.4-4.8-55.7 0-19.1.7-35.3 1.9-46 .2-1.7.7-6.2 1.1-10 1.3-13.2 3.4-32.5 4-36.5.5-3.2 1.5-11.2 2.1-17 .2-2.5.6-5.6.9-7 .2-1.4.7-4.3.9-6.5.3-2.2 1.2-9 2.1-15 .8-6.1 1.7-12.4 1.9-14 .3-1.7.9-5.9 1.5-9.5.5-3.6 1.3-8.5 1.6-11 .6-4.6 1.5-11.4 2-14 .1-.8.6-4 1-7s.8-6.2 1-7c.1-.8.6-4.2 1-7.5.4-3.2.9-6.8 1.1-8 .2-1.1.6-4 .9-6.5.2-2.5.7-5.6.9-7 .3-1.4.8-4.8 1.1-7.5.6-5.4.9-7.9 2.5-20 2.3-18 2.5-21.8 2.5-41 0-18.4-.2-20.6-2.4-26.8-3-8.7-7.3-14.4-14.1-18.5-7.7-4.6-23.6-9.2-37-10.6-12.4-1.4-18-1.7-18.1-.9zM210 154.3c0 .6.5 3 1 5.2.9 3.9 2.6 13.2 4.5 25 2.6 16.7 2.7 70 .1 85.5-.3 1.4-.7 6.1-1.1 10.5-.3 4.4-.8 8.9-1 10-.2 1.1-.7 4.2-1 7-.6 5-1.9 14.7-3 21.5-.2 1.9-1.2 8-2 13.5s-1.7 11.6-2 13.5c-1.1 7.1-2.7 17.6-3 19.9-.3 1.3-.7 4.5-1.1 7-.4 2.5-.8 5.3-.9 6.1-.2.9-.6 4.3-1 7.5-.4 3.3-.9 6.9-1.2 8-.2 1.1-.6 6.7-.8 12.5-1.4 33.1 14.2 46.1 54.7 45.8 7.6-.1 15.1-.3 16.6-.6 2.8-.4 2.9-.5 2.1-4.5-2-10.1-2.8-48.8-1.6-69.5 2.2-35.3 12.2-75.4 25.7-102.8 4.2-8.4 15.9-27.6 17.9-29.4.4-.3 1.8-2.1 3.2-4 7.4-9.9 18.8-19.7 27.3-23.6 13.4-6.1 23.4-2 28.4 11.8 1.8 4.9 2.5 28 1.2 38.8-.5 3.6-1.1 9.2-1.4 12.5-.4 3.3-1.3 9.8-2.1 14.5-.7 4.7-1.7 10.3-2 12.5-1.3 9.1-1.7 11.2-2.5 15-.5 2.2-1.2 5.6-1.5 7.5-.3 1.9-1.2 7.1-2.1 11.5-.8 4.4-1.7 10.2-2 13-.4 2.7-.8 5.3-1 5.7-.2.3-.7 2.8-1 5.5-.3 2.6-.7 5.5-.9 6.3-1.1 4-2 17.9-1.9 30 .1 19.3 3.8 30.5 13.2 39.9 4.7 4.6 15.6 10.6 21.2 11.6 1.6.3 4 .9 5.4 1.5 1.5.5 2.6.8 2.6.5 0-.2 1.4 0 3.1.5 6.5 1.9 36 3.2 45.3 2l3.9-.5-5.1-3.3c-13.4-8.6-19.2-18.3-21.6-36.2-1.5-11.3-1.2-30 .9-47.5.2-1.7.7-5.5 1-8.5.6-5.6 1.2-9.5 2-14 .2-1.4.7-4.5 1-7 .3-2.5 1.5-9.5 2.5-15.5 1.1-6.1 2.2-12.8 2.5-15 .4-2.2 1.2-7.8 2-12.5s1.6-10.8 2-13.5c.3-2.8 1-7.9 1.5-11.5 2.5-18.8 3.4-50.4 1.7-61.8-1.8-12.3-8.6-28.2-15-35-10-10.7-31.1-16.1-48.7-12.5-17.3 3.6-37.5 17.9-57.6 40.9-14.1 16.2-23.2 29.9-32.9 49.9-7.4 15.3-7.7 16.1-12.1 28.5-3.4 9.7-4.1 9.7-2.5-.1 2.4-13.4 3.5-27.6 3.6-44.4 0-18.2-.5-22.7-4-33-8.3-24.9-24.6-40.2-54.7-51.4-4.1-1.5-5.8-1.7-5.8-.8z"/></svg>